# xmcd
#
# Track frame offsets: 
#        150
#        12082
#        27452
#        45330
#        64057
#        85530
#        98035
#        111460
#        132495
#        150632
#
# Disc length: 2219 seconds
#
# Revision: 3
# Processed by: cddbd v1.5.2PL0 Copyright (c) Steve Scherf et al.
# Submitted via: ExactAudioCopyFreeDBPlugin 1.0
#
DISCID=7608a90a
DTITLE=Various Artist - Blues Sax Power (Rounder EasyDisc)
DYEAR=1997
DGENRE=Blues
TTITLE0=Greg Piccolo - The Hammer
TTITLE1=The Tri-Sax-ual Soul Champs - Go Girl
TTITLE2=Noble "Thin Man" Watts - Skunky
TTITLE3=Hal Singer - Swing On It
TTITLE4=Love Dogs - Just Good Lovin'
TTITLE5=Johnny Nocturne - Let's Ball
TTITLE6=A.C. Reed - Miami Strut
TTITLE7=Grady Gains and the Texas Upsetters - G.G. Shuffle
TTITLE8=Joe Houston - Down But Not Out
TTITLE9=Hal Singer - Tater Diggin' (ft Al Copley)
EXTD=
EXTT0=
EXTT1=
EXTT2=
EXTT3=
EXTT4=
EXTT5=
EXTT6=
EXTT7=
EXTT8=
EXTT9=
PLAYORDER=
